<?xml version="1.0" encoding="UTF-8" standalone="no"?>
<svg
   width="400pt"
   height="283.46457pt"
   viewBox="0 0 400 283.46457"
   version="1.1"
   id="svg37"
   sodipodi:docname="beastie.svg"
   inkscape:version="1.3 (0e150ed, 2023-07-21)"
   xmlns:inkscape="http://www.inkscape.org/namespaces/inkscape"
   xmlns:sodipodi="http://sodipodi.sourceforge.net/DTD/sodipodi-0.dtd"
   xmlns="http://www.w3.org/2000/svg"
   xmlns:svg="http://www.w3.org/2000/svg">
  <defs
     id="defs37" />
  <sodipodi:namedview
     id="namedview37"
     pagecolor="#ffffff"
     bordercolor="#000000"
     borderopacity="0.25"
     inkscape:showpageshadow="2"
     inkscape:pageopacity="0.0"
     inkscape:pagecheckerboard="0"
     inkscape:deskcolor="#d1d1d1"
     inkscape:document-units="pt"
     inkscape:zoom="1.6324792"
     inkscape:cx="257.2774"
     inkscape:cy="222.0549"
     inkscape:window-width="1392"
     inkscape:window-height="1212"
     inkscape:window-x="-1"
     inkscape:window-y="31"
     inkscape:window-maximized="0"
     inkscape:current-layer="svg37" />
  <g
     style="fill:none;fill-opacity:1;fill-rule:nonzero;stroke:#000000;stroke-width:30;stroke-linecap:butt;stroke-linejoin:miter;stroke-miterlimit:10;stroke-opacity:1"
     transform="matrix(0.035,0,0,0.035,121.26489,-2.1702155)"
     id="g34">
    <path
       style="fill:#d10000"
       d="m 2174,2967 5,-11 4,-10 6,-11 6,-12 7,-12 8,-13 9,-12 8,-13 9,-12 10,-13 8,-9 8,-10 8,-11 10,-11 9,-12 10,-12 10,-13 10,-14 10,-13 9,-13 9,-12 8,-13 7,-12 7,-12 5,-12 6,-12 5,-13 5,-13 4,-14 5,-14 4,-15 3,-15 4,-15 4,-15 3,-15 3,-15 3,-15 4,-14 3,-15 4,-16 5,-17 4,-17 5,-18 4,-18 5,-18 4,-18 5,-18 4,-16 3,-16 3,-15 3,-13 2,-13 2,-16 2,-16 v -44 l -2,-13 -1,-12 -2,-12 -2,-11 -2,-10 -2,-9 -2,-9 -2,-10 -2,-11 -2,-12 -3,-12 -2,-13 -3,-14 -2,-13 -3,-14 -3,-15 -2,-15 -3,-13 -3,-15 -3,-15 -2,-16 -4,-18 -6,-36 -3,-18 -3,-18 -2,-18 -3,-17 -2,-16 -2,-15 -1,-14 -2,-16 -1,-15 -1,-16 -1,-15 v -16 l 1,-15 1,-15 2,-28 2,-13 3,-13 3,-13 3,-12 3,-14 4,-13 4,-15 5,-14 5,-14 4,-14 5,-13 4,-12 4,-11 4,-10 3,-9 3,-9 6,-16 4,-9 4,-8 6,-9 6,-10 7,-10 9,-11 10,-13 8,-9 8,-10 9,-11 10,-12 12,-13 12,-15 13,-14 14,-16 14,-16 15,-16 15,-15 14,-16 15,-15 14,-15 54,-54 14,-12 13,-13 14,-12 15,-13 15,-13 15,-13 15,-13 15,-13 15,-12 15,-13 15,-11 15,-11 14,-11 13,-10 13,-10 14,-9 14,-11 16,-10 15,-11 16,-10 16,-11 16,-10 17,-11 16,-10 17,-10 15,-9 16,-9 15,-9 14,-8 13,-7 13,-7 12,-6 15,-9 16,-7 15,-8 16,-7 15,-6 15,-6 14,-5 14,-4 12,-3 12,-2 11,-1 h 10 l 9,1 9,1 10,3 8,3 9,4 7,4 7,5 5,6 5,6 3,5 2,12 -1,6 -2,7 -5,8 -6,8 -7,9 -8,9 -10,9 -9,9 -10,8 -9,10 -9,7 -8,9 -9,9 -10,10 -10,10 -10,11 -10,11 -10,11 -10,11 -9,11 -9,10 -9,11 -9,10 -9,11 -9,12 -9,12 -10,12 -9,12 -9,12 -9,12 -8,11 -8,10 -7,10 -6,9 -8,11 -7,10 -7,10 -6,10 -7,10 -5,10 -5,9 -5,9 -3,8 -3,8 -4,10 -3,11 -2,11 -2,13 -1,12 -1,12 -1,12 v 23 l 1,13 v 13 l 2,14 1,13 2,13 2,11 3,11 3,9 4,10 4,8 5,9 6,7 6,6 7,5 7,4 7,2 9,2 10,1 11,-1 12,-2 13,-2 13,-4 14,-5 10,-4 10,-4 12,-5 12,-5 13,-6 14,-6 15,-7 14,-6 15,-6 15,-6 14,-6 15,-5 12,-5 13,-5 14,-4 15,-5 15,-4 16,-5 17,-4 16,-4 17,-4 17,-3 16,-4 16,-3 16,-2 15,-2 16,-3 16,-2 17,-1 17,-2 19,-2 57,-3 h 20 l 19,-1 h 19 l 18,1 h 18 l 17,1 h 15 l 16,1 17,1 17,2 18,1 18,3 20,2 20,3 20,3 63,12 42,10 21,6 21,6 36,10 19,6 19,6 42,14 21,7 22,8 22,9 22,8 44,18 21,8 21,9 19,9 19,8 18,9 17,8 16,8 15,8 20,11 20,12 18,12 18,12 17,12 17,12 15,13 14,12 13,11 12,11 11,10 9,10 9,9 8,8 10,11 10,11 10,10 10,9 10,9 9,8 10,7 9,5 9,4 10,4 8,2 9,1 11,1 h 11 l 12,-1 13,-2 14,-2 14,-3 15,-4 15,-4 15,-5 15,-6 14,-5 15,-6 15,-7 16,-7 17,-8 17,-9 16,-8 17,-9 16,-9 15,-9 14,-8 12,-8 11,-8 10,-7 10,-8 9,-8 8,-9 6,-8 6,-9 8,-20 2,-11 2,-11 1,-11 1,-12 v -12 l 1,-12 v -13 l -1,-14 v -15 l -1,-17 -1,-17 -1,-18 -2,-18 -2,-19 -6,-36 -4,-17 -4,-17 -4,-16 -5,-16 -6,-16 -7,-17 -7,-16 -7,-17 -8,-17 -9,-16 -8,-17 -9,-15 -8,-14 -7,-14 -8,-12 -6,-12 -6,-10 -8,-14 -7,-14 -7,-12 -5,-12 -5,-12 -3,-10 -2,-9 -1,-9 1,-7 1,-6 3,-6 4,-5 6,-6 6,-5 8,-4 9,-4 9,-3 10,-3 10,-1 10,-1 11,-1 h 11 l 13,1 13,2 14,3 14,4 14,4 13,5 14,6 12,6 9,5 10,5 9,7 11,7 10,8 11,9 12,9 12,11 12,11 12,12 12,12 12,12 12,14 12,14 10,11 10,12 11,13 11,13 12,15 12,15 12,16 13,16 12,17 13,17 12,17 12,17 11,17 11,16 10,16 9,15 10,15 8,15 9,16 9,16 8,16 8,17 8,17 7,17 7,18 7,17 6,17 6,17 6,17 5,16 4,16 5,15 4,14 3,15 4,14 3,15 4,15 3,15 3,16 4,17 2,17 3,17 2,17 2,17 2,16 1,17 1,15 v 31 l -1,15 -1,15 -1,15 -2,15 -2,16 -3,17 -4,18 -4,17 -5,19 -6,18 -6,18 -7,19 -7,18 -8,18 -16,34 -9,18 -9,15 -9,16 -10,17 -10,17 -11,18 -12,18 -13,19 -14,18 -13,19 -15,19 -14,19 -15,18 -14,18 -15,17 -14,16 -15,16 -14,15 -14,15 -14,14 -15,14 -15,13 -15,14 -16,14 -17,14 -16,14 -17,13 -17,13 -16,13 -16,13 -16,11 -15,12 -15,10 -14,10 -13,9 -12,9 -12,9 -17,12 -17,11 -16,12 -15,10 -15,11 -14,9 -13,9 -11,8 -10,6 -8,6 -7,4 -5,3 -4,2 -6,4 -2,1 -1,2 -1,1 -1,3 v 6 l 1,5 v 5 l 1,6 1,8 v 9 l 1,9 v 67 l -1,18 v 18 l -1,20 -2,19 -1,20 -2,19 -1,20 -2,19 -3,18 -2,19 -3,18 -3,19 -3,19 -4,19 -4,20 -5,20 -5,20 -6,21 -5,20 -6,20 -7,19 -6,19 -6,18 -7,17 -7,16 -6,16 -8,16 -7,15 -8,16 -9,16 -9,17 -10,16 -10,17 -11,17 -11,17 -11,16 -12,16 -11,15 -12,15 -12,15 -12,14 -11,14 -13,14 -13,14 -13,14 -14,15 -15,15 -14,15 -16,15 -15,16 -15,15 -14,15 -40,40 -11,12 -11,11 -9,11 -12,13 -11,13 -11,13 -9,13 -9,13 -8,12 -7,12 -6,11 -5,11 -8,20 -3,9 -4,11 -3,11 -2,12 -3,12 -2,13 -2,13 -1,12 v 46 l 1,12 2,12 2,13 3,13 3,14 3,13 4,12 4,11 5,12 5,11 5,11 7,12 6,13 8,13 7,12 7,13 7,12 7,11 6,11 6,12 6,11 6,13 6,13 6,14 6,14 5,14 5,14 5,14 4,14 3,10 3,11 3,11 3,12 2,13 3,13 3,15 3,14 2,16 2,15 2,16 2,15 2,16 2,17 1,14 1,16 1,16 1,17 1,18 1,18 1,19 v 19 l 1,19 v 37 l 1,17 v 16 l -1,16 v 29 l -1,17 v 17 l -1,17 -2,16 -1,16 -2,16 -2,15 -3,13 -2,13 -3,12 -3,11 -2,11 -4,12 -5,13 -4,13 -5,13 -5,14 -5,13 -5,13 -4,12 -3,12 -3,11 -2,9 -1,9 -1,10 -1,11 v 12 l 1,12 2,13 2,14 2,15 4,15 4,16 4,17 4,13 4,15 5,15 5,17 6,18 7,19 7,19 7,21 8,21 8,20 9,21 8,21 9,19 9,20 9,19 9,18 8,16 8,17 9,16 9,17 10,18 11,17 11,18 11,17 11,18 12,17 13,17 12,17 12,16 12,15 13,15 12,14 12,14 12,13 26,26 14,13 14,12 15,13 15,14 16,13 17,13 17,13 17,12 18,13 17,12 17,11 17,11 17,10 17,11 16,9 16,10 17,9 17,9 17,9 18,9 19,10 19,9 20,9 21,10 21,9 42,18 21,8 21,8 20,8 20,7 40,14 19,6 36,12 19,5 19,6 20,5 21,6 21,5 22,6 22,6 23,5 22,6 46,10 22,6 23,5 21,4 22,5 21,5 21,4 21,5 21,4 21,5 22,4 22,5 23,5 23,5 24,5 25,5 24,5 24,5 25,5 24,5 46,10 22,5 21,5 20,4 20,5 19,4 18,4 22,5 21,5 22,6 22,5 21,5 22,6 21,5 21,6 20,5 19,6 19,5 17,5 17,5 15,5 15,5 14,4 32,10 15,6 16,5 16,6 16,6 16,7 15,6 15,6 15,7 13,6 13,7 13,6 12,7 12,6 12,8 13,7 12,8 13,9 13,9 13,9 12,10 12,10 11,9 10,10 10,9 9,9 8,9 9,11 8,11 8,12 8,12 7,13 7,13 6,13 5,13 5,13 3,11 4,12 3,11 2,13 2,13 2,14 1,15 -1,14 -1,15 -3,14 -4,14 -5,13 -6,12 -6,11 -7,10 -8,12 -9,11 -10,12 -11,12 -12,11 -12,11 -11,10 -12,10 -11,9 -11,8 -9,7 -10,7 -10,6 -11,7 -11,6 -13,6 -13,7 -13,6 -15,5 -15,6 -15,5 -16,5 -17,5 -17,5 -16,4 -18,5 -18,4 -20,5 -20,4 -22,5 -22,4 -22,5 -21,4 -22,5 -20,4 -19,3 -18,4 -16,3 -15,3 -13,2 -16,3 -14,3 -12,2 -10,3 -9,2 -8,2 -5,3 -4,2 -3,3 -2,3 v 6 l 1,8 2,11 3,12 3,12 2,11 v 9 l -2,4 -2,3 -3,4 -6,2 -7,2 -9,2 -11,2 -14,1 h -15 l -17,1 h -10 l -12,1 h -41 l -17,1 h -36 l -20,1 h -20 l -21,1 h -43 l -22,1 h -22 l -23,1 h -22 l -22,1 -21,1 h -22 l -22,1 -23,1 h -24 l -24,1 -26,1 -25,1 -27,1 -78,3 -50,2 -46,2 -22,1 -21,1 -20,1 -19,1 -46,2 -22,2 -21,1 -22,1 -21,1 -20,2 -19,1 -18,1 -18,1 -16,1 h -14 l -13,1 h -12 l -11,1 h -37 l -11,-1 -10,-1 -9,-1 -7,-2 -4,-2 -4,-2 -1,-2 -1,-3 v -2 l 2,-3 3,-4 5,-4 7,-6 9,-6 12,-8 15,-9 17,-11 20,-12 23,-13 26,-14 15,-9 17,-9 18,-10 19,-11 20,-11 22,-12 23,-12 23,-13 25,-14 25,-13 26,-15 25,-14 26,-14 25,-14 25,-13 25,-14 23,-13 23,-12 21,-12 21,-11 19,-11 19,-10 24,-14 24,-13 22,-13 21,-12 21,-12 20,-12 19,-11 17,-10 17,-10 15,-9 14,-9 13,-8 11,-7 11,-7 9,-6 9,-5 12,-9 12,-8 12,-8 10,-8 10,-6 10,-6 8,-4 7,-3 6,-2 h 11 l 5,1 5,3 5,4 5,4 15,18 4,6 5,7 5,8 6,9 6,10 6,10 6,10 6,11 5,9 5,10 4,9 4,10 5,10 4,10 4,10 4,9 4,8 3,8 3,6 4,6 4,5 5,5 6,5 7,5 7,3 9,3 9,2 11,1 h 20 l 12,-1 14,-1 14,-2 15,-2 16,-2 16,-3 15,-3 15,-4 14,-3 13,-3 14,-4 13,-4 13,-4 14,-4 14,-5 13,-5 14,-5 12,-5 13,-5 11,-5 11,-5 11,-5 12,-7 12,-6 13,-8 12,-7 12,-8 12,-9 10,-8 9,-8 7,-7 6,-7 4,-6 3,-6 3,-7 2,-7 1,-6 v -8 l -1,-7 -2,-7 -2,-7 -3,-7 -4,-7 -10,-14 -6,-8 -7,-8 -9,-8 -9,-9 -10,-9 -11,-9 -12,-8 -11,-9 -12,-8 -13,-7 -12,-7 -20,-10 -11,-5 -11,-5 -13,-6 -14,-5 -15,-5 -16,-5 -16,-5 -36,-10 -19,-4 -19,-5 -20,-4 -20,-4 -21,-4 -18,-3 -19,-3 -20,-4 -21,-3 -23,-3 -23,-4 -24,-3 -25,-4 -26,-4 -27,-3 -27,-4 -26,-4 -27,-3 -26,-4 -26,-3 -25,-4 -24,-3 -24,-4 -23,-3 -22,-3 -23,-4 -22,-3 -44,-8 -23,-3 -23,-4 -23,-4 -23,-4 -23,-5 -22,-4 -23,-4 -22,-4 -21,-4 -21,-5 -20,-4 -19,-4 -18,-3 -17,-4 -17,-4 -17,-3 -20,-5 -21,-5 -20,-4 -20,-5 -21,-5 -21,-6 -42,-10 -21,-6 -20,-5 -19,-5 -19,-6 -18,-5 -17,-5 -17,-4 -32,-10 -17,-5 -16,-5 -17,-6 -18,-5 -17,-6 -18,-6 -17,-6 -18,-6 -17,-6 -16,-5 -16,-6 -15,-5 -14,-5 -14,-5 -13,-5 -14,-5 -15,-6 -14,-5 -15,-6 -15,-6 -15,-6 -14,-6 -15,-6 -13,-6 -14,-6 -12,-6 -12,-6 -11,-6 -11,-6 -13,-8 -13,-7 -13,-8 -26,-18 -14,-9 -13,-9 -13,-9 -12,-9 -12,-8 -11,-8 -11,-7 -10,-8 -11,-7 -11,-8 -11,-8 -12,-8 -11,-8 -12,-9 -11,-8 -10,-8 -11,-8 -9,-8 -10,-8 -11,-10 -11,-10 -12,-11 -12,-11 -11,-12 -12,-10 -11,-10 -10,-8 -9,-7 -8,-5 -7,-4 -6,-3 -8,-1 -9,-1 -10,2 -12,2 -15,4 -17,5 -19,7 -21,9 -24,9 -27,11 -15,6 -16,7 -17,7 -19,7 -19,7 -21,8 -22,8 -24,8 -24,8 -26,8 -26,8 -27,8 -27,7 -28,7 -28,6 -29,5 -28,5 -28,4 -27,4 -27,2 -27,2 h -53 l -26,-1 -26,-3 -26,-3 -26,-4 -26,-6 -27,-6 -27,-7 -27,-8 -27,-9 -28,-10 -27,-10 -27,-11 -52,-22 -25,-12 -24,-12 -23,-11 -21,-12 -21,-11 -20,-11 -18,-11 -17,-10 -15,-9 -15,-9 -13,-9 -21,-13 -19,-13 -16,-11 -15,-11 -13,-10 -11,-10 -9,-9 -9,-8 -7,-8 -6,-8 -5,-8 -5,-7 -10,-16 -5,-9 -6,-10 -7,-11 -7,-12 -8,-12 -8,-13 -9,-14 -9,-14 -8,-14 -8,-14 -8,-13 -8,-13 -7,-12 -6,-11 -8,-14 -7,-13 -6,-13 -7,-14 -6,-14 -5,-13 -6,-14 -4,-13 -4,-12 -4,-12 -3,-12 -2,-11 -2,-11 -2,-12 -2,-12 -1,-13 -1,-13 -1,-13 -1,-13 v -37 l 1,-11 v -10 l 1,-13 2,-13 1,-12 2,-14 2,-13 3,-13 3,-12 3,-11 3,-11 3,-10 5,-13 5,-12 5,-13 6,-13 6,-12 5,-11 5,-9 4,-8 4,-10 4,-9 2,-7 1,-8 1,-6 -1,-5 -2,-5 -3,-6 -5,-7 -5,-7 -7,-7 -7,-8 -7,-7 -7,-8 -8,-9 -9,-9 -8,-10 -7,-10 -7,-10 -6,-9 -4,-10 -4,-10 -3,-11 -3,-11 -1,-10 -1,-10 v -9 l 1,-8 v -7 l 2,-7 1,-7 1,-6 v -6 l -1,-5 -2,-4 -3,-2 -6,-3 -10,-3 -11,-1 -13,-2 -12,-1 -11,-1 -9,-2 -9,-2 -9,-3 -14,-8 -5,-4 -5,-5 -6,-6 -5,-6 -6,-6 -6,-6 -7,-4 -4,-3 -4,-3 -6,-4 -7,-5 -8,-7 -10,-9 -11,-11 -13,-14 -14,-16 -15,-20 -10,-12 -10,-14 -11,-15 -12,-16 -12,-17 -12,-19 -13,-20 -13,-20 -12,-20 -13,-21 -11,-21 -11,-21 -10,-19 -9,-19 -8,-18 -6,-17 -5,-16 -4,-15 -2,-13 -1,-12 v -12 l 1,-11 2,-11 3,-10 4,-10 5,-9 6,-9 7,-9 8,-8 8,-7 9,-7 10,-6 10,-5 10,-6 11,-4 10,-4 11,-4 11,-4 15,-4 15,-4 15,-3 17,-3 17,-3 36,-6 19,-2 19,-2 19,-1 19,-2 18,-1 h 17 l 17,-1 h 32 l 17,1 h 18 l 54,3 19,2 18,2 17,1 17,2 16,2 15,2 14,2 13,2 13,2 32,4 15,3 16,1 15,2 h 27 l 11,-1 11,-2 9,-3 9,-4 9,-5 9,-7 9,-7 8,-9 7,-9 7,-10 6,-9 5,-10 5,-9 3,-10 4,-10 3,-10 2,-11 2,-11 1,-11 v -31 l -1,-9 -2,-12 -4,-12 -4,-12 -5,-12 -6,-12 -7,-10 -7,-10 -15,-15 -10,-6 -10,-6 -11,-6 -12,-6 -12,-5 -11,-5 -10,-5 -9,-4 -9,-4 -10,-5 -10,-5 -10,-5 -10,-6 -10,-6 -10,-7 -10,-6 -9,-6 -9,-7 -10,-8 -10,-8 -12,-9 -11,-9 -12,-9 -12,-9 -12,-9 -11,-9 -12,-8 -10,-7 -10,-6 -11,-7 -11,-7 -12,-8 -12,-7 -12,-7 -12,-7 -12,-7 -10,-6 -10,-7 -10,-5 -11,-8 -11,-7 -12,-7 -11,-7 -12,-8 -12,-7 -12,-7 -11,-6 -11,-5 -11,-5 -9,-4 -10,-4 -11,-4 -11,-4 -12,-4 -12,-4 -12,-4 -13,-5 -12,-4 -12,-5 -12,-4 -11,-5 -12,-5 -12,-6 -12,-7 -13,-7 -13,-8 -14,-8 -13,-9 -13,-9 -13,-10 -12,-9 -11,-9 -10,-10 -11,-10 -10,-10 -10,-11 -11,-12 -10,-12 -10,-12 -10,-13 -9,-12 -9,-11 -8,-11 -7,-10 -6,-9 -8,-11 -7,-11 -7,-11 -7,-11 -7,-12 -6,-11 -5,-11 -6,-11 -4,-10 -4,-11 -4,-11 -4,-12 -4,-13 -4,-13 -6,-28 -3,-14 -3,-12 -1,-12 -2,-11 -1,-11 -1,-11 -1,-10 v -34 l 1,-10 1,-11 2,-9 1,-10 2,-10 2,-11 3,-12 3,-12 3,-12 4,-13 4,-12 4,-12 4,-11 z"
       id="path1" />
    <path
       style="fill:#00b000"
       d="m 2420,6449 12,-1 h 12 l 13,-1 14,-1 h 13 l 14,-1 h 50 l 12,-1 h 109 l 10,-1 h 21 l 11,-1 11,-1 11,-1 10,-1 9,-2 9,-2 9,-2 10,-4 10,-5 11,-5 11,-6 10,-6 11,-6 10,-5 11,-5 10,-5 11,-4 12,-5 13,-5 13,-4 12,-4 11,-4 11,-4 10,-4 10,-4 10,-4 10,-5 10,-4 9,-5 7,-4 8,-3 8,-5 8,-6 8,-6 6,-6 5,-8 4,-7 1,-7 1,-8 v -19 l -1,-10 -2,-9 -2,-9 -2,-8 -3,-8 -3,-9 -3,-8 -4,-9 -4,-8 -4,-9 -4,-8 -3,-8 -4,-9 -4,-10 -4,-10 -4,-11 -3,-12 -4,-10 -3,-11 -2,-9 -4,-12 -3,-13 -2,-12 -1,-11 v -9 l 1,-6 1,-3 1,-2 3,-2 2,-2 h 4 l 3,-1 8,2 5,1 4,2 8,3 8,5 10,6 10,6 8,7 8,6 7,7 8,6 7,7 8,6 7,5 8,3 8,1 h 10 l 11,-1 11,-1 11,-2 11,-1 8,-1 9,-1 h 36 l 8,1 h 17 l 10,1 11,1 10,2 16,4 7,3 8,4 7,6 8,6 7,6 6,7 7,6 7,8 8,8 8,7 9,5 8,4 9,2 h 20 l 10,-2 9,-1 9,-1 8,-1 8,-1 9,1 7,2 7,2 5,4 5,5 4,6 5,8 4,9 3,9 3,9 2,7 4,16 2,9 2,8 2,9 1,7 1,8 1,9 1,9 2,8 1,6 2,3 h 2 l 2,-3 3,-6 4,-9 4,-11 4,-12 4,-11 3,-9 4,-9 3,-10 8,-20 4,-10 4,-9 4,-8 8,-18 5,-9 5,-8 5,-9 6,-8 5,-6 6,-6 5,-6 7,-5 7,-5 8,-5 9,-4 16,-6 8,-2 7,-2 9,-2 9,-1 18,-2 h 18 l 8,1 h 7 l 8,1 9,2 8,2 9,2 8,3 8,2 8,4 7,3 8,4 8,5 9,5 9,5 8,6 8,5 8,5 7,5 8,6 8,6 8,6 7,6 7,6 12,12 6,7 6,7 5,6 4,5 3,4 3,1 2,-2 2,-5 2,-7 3,-7 3,-7 3,-4 3,-3 4,-3 5,-3 6,-2 6,-2 7,-2 7,-1 8,-1 8,-1 h 10 l 11,-1 h 22 l 10,-1 h 21 l 11,-1 11,-1 12,-1 12,-1 11,-1 11,-2 20,-4 10,-3 11,-3 11,-3 11,-4 10,-3 10,-3 9,-3 8,-3 8,-3 9,-3 9,-4 9,-3 9,-3 8,-4 8,-3 8,-4 9,-3 9,-4 9,-3 9,-2 h 9 l 8,1 7,3 7,4 6,7 7,9 7,11 7,12 6,13 6,12 6,13 5,10 5,11 5,12 6,12 6,13 6,13 6,13 6,12 5,12 6,12 4,10 5,10 4,11 5,12 6,11 5,13 5,12 5,12 4,12 5,11 4,11 4,11 4,11 4,11 4,12 4,12 4,12 4,13 4,12 3,12 4,12 3,11 4,10 3,11 4,11 4,12 4,13 4,12 4,12 4,12 4,11 4,10 3,9 3,9 2,7 2,8 2,7 1,7 v 8 l -1,8 -2,7 -4,8 -4,7 -6,8 -6,6 -6,6 -8,7 -8,8 -11,8 -12,8 -13,10 -15,9 -16,10 -18,10 -18,10 -19,11 -21,10 -21,11 -14,6 -16,8 -16,7 -17,7 -18,8 -19,8 -20,9 -21,8 -21,9 -23,9 -23,9 -23,9 -24,8 -23,9 -24,8 -23,8 -24,8 -23,7 -44,14 -23,7 -21,6 -22,6 -23,6 -22,6 -24,5 -23,6 -25,5 -25,5 -25,5 -26,5 -54,10 -27,4 -26,4 -27,4 -27,3 -26,4 -26,3 -26,2 -25,3 -25,2 -24,2 -25,2 -23,2 -23,1 -72,3 -25,1 -52,2 h -54 l -27,1 h -26 l -27,-1 h -53 l -50,-2 h -24 l -23,-1 -22,-1 -22,-2 -21,-1 -20,-1 -19,-2 -26,-2 -25,-3 -24,-3 -25,-3 -24,-3 -24,-4 -24,-5 -24,-5 -23,-5 -22,-5 -42,-12 -19,-7 -36,-14 -16,-7 -15,-7 -15,-8 -14,-8 -14,-9 -15,-9 -14,-10 -14,-11 -14,-11 -14,-12 -14,-13 -14,-13 -14,-13 -14,-14 -13,-14 -13,-13 -12,-14 -12,-14 -12,-13 -12,-14 -11,-13 -13,-16 -13,-16 -13,-17 -14,-17 -13,-17 -13,-18 -13,-18 -12,-18 -20,-34 -8,-16 -7,-15 -4,-14 -4,-13 -1,-11 1,-11 2,-11 5,-10 7,-9 10,-9 11,-8 13,-7 15,-6 16,-6 16,-5 16,-4 16,-3 15,-3 15,-2 14,-2 15,-3 15,-2 15,-2 28,-4 14,-1 13,-2 12,-1 12,-1 11,-1 10,-1 z"
       id="path2" />
    <path
       style="fill:#ffd700"
       d="m 2452,4170 h -1 l -3,-3 -9,-7 -15,-11 -19,-14 -21,-17 -22,-16 -21,-16 -19,-15 -17,-12 -15,-12 -13,-10 -12,-9 -11,-8 -12,-10 -12,-10 -12,-9 -12,-10 -11,-9 -11,-9 -10,-9 -10,-8 -9,-7 -8,-7 -7,-6 -6,-6 -9,-8 -8,-7 -7,-8 -7,-6 -5,-7 -5,-5 -3,-5 -2,-5 -1,-6 v -5 l 2,-6 2,-6 4,-6 3,-6 4,-5 10,-14 5,-8 5,-9 4,-8 3,-6 6,-16 2,-8 3,-9 2,-8 2,-8 2,-7 1,-9 2,-9 1,-10 1,-11 1,-10 v -38 l -1,-11 v -11 l -1,-10 -1,-11 -1,-9 -1,-10 -2,-9 -2,-11 -3,-10 -2,-11 -3,-10 -3,-10 -3,-10 -3,-9 -3,-10 -4,-11 -5,-12 -5,-11 -5,-11 -6,-10 -7,-10 -5,-8 -7,-8 -7,-8 -24,-24 -8,-7 -8,-6 -7,-5 -7,-5 -8,-5 -16,-8 -6,-3 -6,-4 -3,-4 -1,-3 v -5 l 3,-5 4,-6 5,-8 6,-8 5,-8 4,-9 1,-8 -1,-7 -3,-7 -7,-7 -10,-7 -11,-7 -13,-7 -13,-6 -13,-5 -12,-5 -11,-4 -11,-5 -10,-4 -11,-4 -10,-4 -10,-5 -9,-3 -8,-4 -8,-4 -9,-4 -9,-5 -10,-5 -10,-6 -10,-5 -10,-5 -10,-4 -8,-4 -9,-4 -9,-5 -11,-4 -10,-5 -11,-5 -11,-4 -11,-5 -10,-5 -10,-4 -12,-6 -13,-6 -13,-6 -13,-5 -11,-5 -8,-2 -7,-1 -4,1 -1,3 v 5 l 3,7 5,9 6,9 6,10 7,10 7,9 6,8 7,9 7,9 7,9 6,9 7,9 6,9 6,9 5,9 6,10 6,11 6,12 12,22 5,10 5,10 5,9 4,9 5,9 5,10 5,10 4,11 8,20 4,12 4,12 4,13 4,13 5,12 5,11 4,8 5,6 4,3 4,1 h 10 l 5,-2 6,-3 10,-8 5,-4 5,-4 9,-7 9,-7 9,-6 10,-5 9,-3 h 9 l 6,1 6,3 7,5 7,5 14,14 7,7 6,8 7,7 7,9 7,9 7,9 7,10 7,9 5,9 5,9 8,18 4,10 3,10 2,10 2,10 2,8 1,8 2,9 1,9 v 28 l -1,8 -4,18 -3,10 -4,9 -4,9 -5,8 -6,6 -7,7 -8,7 -16,12 -6,5 -7,5 -6,5 -7,4 -6,4 -7,2 -6,1 -6,-2 -7,-3 -8,-4 -8,-5 -8,-6 -7,-6 -6,-5 -7,-6 -8,-6 -7,-6 -7,-6 -6,-5 -7,-5 -7,-5 -7,-6 -16,-12 -7,-5 -5,-4 -6,-5 -7,-5 -7,-6 -7,-6 -8,-5 -7,-5 -7,-5 -7,-6 -7,-5 -8,-6 -7,-7 -6,-6 -5,-7 -3,-7 -1,-7 v -7 l 2,-8 4,-8 5,-9 5,-9 5,-8 5,-7 4,-6 2,-4 1,-3 2,-4 v -7 l -1,-2 -1,-2 -4,-2 -2,-2 -2,-1 -3,-1 -4,-1 -3,-1 -4,-1 -5,-1 -8,-1 -10,-1 -11,-2 -14,-2 -15,-2 -16,-3 -18,-4 -18,-5 -19,-5 -18,-6 -19,-7 -19,-8 -17,-8 -18,-9 -18,-9 -19,-11 -19,-10 -19,-11 -19,-11 -18,-10 -16,-9 -15,-7 -13,-7 -11,-4 -9,-3 -7,-1 -6,1 -3,3 -2,5 v 7 l 2,9 3,10 4,12 5,12 7,14 6,13 7,14 7,14 8,13 7,14 7,15 8,15 8,15 8,16 8,15 8,16 7,15 7,14 6,14 5,12 5,11 4,11 6,14 4,15 4,14 4,13 3,12 2,10 3,9 4,14 2,5 3,6 6,8 3,3 6,2 h 5 l 5,-2 6,-4 7,-4 7,-6 7,-7 6,-5 13,-13 7,-6 8,-6 14,-8 7,-1 6,-1 14,4 8,5 8,5 8,6 8,6 16,14 9,7 10,8 11,9 10,9 10,8 9,8 9,7 8,6 8,7 7,8 8,7 7,8 7,8 5,7 6,8 4,8 4,9 4,9 3,11 2,10 1,9 v 9 l -2,8 -3,8 -5,7 -6,8 -9,8 -11,7 -12,7 -13,7 -15,7 -9,4 -10,4 -11,4 -12,4 -13,4 -13,4 -15,4 -15,3 -16,3 -16,2 -15,1 -16,1 h -32 l -16,-1 -17,-2 -17,-3 -18,-4 -19,-4 -18,-4 -18,-5 -18,-6 -16,-5 -15,-6 -13,-6 -12,-5 -9,-5 -8,-5 -5,-4 -4,-3 -3,-4 -3,-3 -2,-3 -1,-4 -1,-3 v -6 l 1,-4 2,-3 1,-3 3,-3 2,-3 3,-2 3,-3 3,-2 3,-3 6,-4 8,-5 8,-6 8,-5 8,-6 7,-6 7,-6 5,-6 4,-5 2,-4 1,-5 1,-4 v -10 l -2,-5 -6,-10 -5,-5 -5,-4 -7,-4 -8,-4 -9,-3 -10,-4 -12,-4 -14,-4 -15,-5 -16,-5 -18,-5 -17,-6 -18,-6 -18,-7 -17,-8 -18,-8 -30,-16 -16,-10 -16,-10 -17,-10 -16,-11 -17,-11 -15,-10 -16,-10 -14,-9 -12,-8 -12,-7 -10,-6 -9,-4 -5,-2 -12,-3 h -10 l -2,1 -3,1 -2,1 -4,4 -1,3 -2,6 v 3 l -1,4 v 4 l 1,4 v 5 l 1,4 2,10 2,5 1,5 2,6 4,10 4,11 5,13 7,13 7,15 8,15 8,16 10,17 9,16 10,17 11,16 10,16 11,16 10,16 10,13 10,14 11,14 11,15 12,14 13,15 12,15 14,15 13,15 13,14 13,13 13,12 13,12 12,10 12,10 12,9 13,10 13,9 14,8 15,8 14,8 16,7 15,6 15,6 16,5 15,4 14,4 15,4 14,3 14,3 13,2 15,2 15,3 15,2 16,2 17,1 32,2 16,1 h 31 l 14,-1 13,-1 13,-1 14,-2 15,-3 14,-3 15,-4 15,-5 14,-5 14,-5 14,-6 13,-6 12,-5 12,-6 11,-5 13,-6 13,-7 13,-7 14,-7 13,-7 13,-7 11,-7 11,-6 9,-5 7,-5 7,-4 7,-5 6,-4 6,-3 6,-3 6,-1 5,-1 h 6 l 6,1 14,6 9,5 9,7 11,7 12,9 12,9 12,10 12,10 12,11 12,10 10,9 11,9 11,10 11,10 12,10 12,11 12,10 12,11 11,10 11,9 10,9 10,8 10,8 10,8 10,9 12,9 13,10 14,10 15,12 13,10 12,9 7,5 3,3 h 1"
       id="path3" />
    <path
       d="m 2876,5202 1,1 3,4 7,10 10,14 11,15 11,13 9,12 8,10 7,8 6,7 8,8 8,8 9,8 9,7 10,7 9,7 9,6 9,5 9,6 10,6 11,6 12,7 11,6 11,6 10,4 10,5 9,3 9,4 10,3 9,3 10,2 8,2 9,2 7,2 8,2 8,2 8,1 9,2 9,2 9,2 8,1 8,1 8,1 9,1 9,1 9,1 h 17 l 8,1 h 15 l 8,-1 h 10 l 10,-1 6,-1 h 1"
       id="path4" />
    <path
       d="m 3161,5427 h 1 l 4,3 10,6 16,10 19,11 20,12 18,11 17,9 14,8 13,7 10,5 11,5 22,10 11,4 12,4 11,3 11,3 11,2 10,3 10,1 10,2 10,2 10,2 12,1 12,2 12,1 13,2 h 12 l 11,1 h 22 l 10,-1 10,-1 10,-2 11,-2 11,-2 22,-6 10,-3 10,-3 10,-3 10,-3 11,-3 11,-3 11,-4 12,-3 12,-4 12,-3 12,-4 10,-3 11,-3 10,-4 11,-3 11,-4 12,-3 12,-4 12,-4 13,-3 12,-3 11,-3 12,-2 11,-3 13,-2 13,-2 14,-2 15,-2 15,-2 14,-2 14,-1 13,-2 12,-1 13,-1 12,-2 14,-2 14,-2 14,-2 14,-2 14,-3 14,-4 14,-3 13,-4 22,-8 13,-4 13,-5 13,-6 14,-5 13,-6 13,-6 13,-6 13,-5 11,-6 12,-5 13,-6 13,-6 14,-6 14,-6 14,-6 14,-6 13,-6 12,-5 12,-5 11,-5 11,-5 12,-4 11,-5 12,-5 12,-6 11,-5 11,-5 10,-5 9,-5 8,-4 10,-7 10,-7 9,-7 10,-8 9,-9 9,-9 8,-9 7,-9 6,-8 6,-9 7,-10 8,-12 9,-15 10,-15 8,-14 7,-10 3,-4 v -1"
       id="path5" />
    <path
       style="fill:#d10000"
       d="m 2640,4897 3,5 4,5 5,5 4,5 5,4 5,4 12,6 7,3 7,2 7,2 7,1 7,1 16,2 7,1 7,1 h 7 l 6,1 7,1 7,1 h 6 l 5,1 5,-1 h 6 l 6,-1 7,-1 8,-2 8,-1 7,-2 8,-1 8,-2 10,-2 10,-2 9,-3 8,-2 8,-3 10,-4 9,-5 10,-5 16,-12 6,-5 6,-5 6,-6 6,-7 6,-6 5,-7 5,-7 6,-7 6,-8 6,-9 7,-10 6,-9 7,-8 6,-9 6,-9 7,-9 7,-8 6,-8 11,-11 4,-6 5,-5 4,-4 3,-5 3,-4 2,-5 1,-7 v -14 l -2,-12 -2,-7 -2,-8 -2,-7 -3,-6 -2,-5 -2,-6 -3,-6 -3,-5 -2,-6 -6,-10 -4,-6 -3,-6 -4,-6 -8,-12 -1,-2 -2,-2 -2,-2 -4,-4 -3,-1 -4,-1 h -5 l -5,1 -12,4 -8,3 -8,4 -9,5 -10,7 -11,7 -11,7 -11,8 -13,10 -14,10 -15,11 -15,12 -16,13 -17,14 -17,13 -16,14 -17,14 -16,13 -15,13 -14,12 -13,12 -12,11 -11,10 -10,9 -13,12 -11,11 -17,19 -5,8 -5,7 -2,5 -2,5 v 7"
       id="path6" />
    <path
       d="m 2891,5190 2,1 9,3 13,4 13,5 10,3 9,3 8,3 9,3 10,3 9,3 9,3 9,2 8,2 9,2 10,1 9,1 9,2 8,1 h 8 l 8,1 8,1 h 8 l 8,1 h 7 l 7,1 h 68 l 4,-1 h 4 l 1,-1 h 1 v -1 h 1 v -1"
       id="path7" />
    <path
       style="fill:#ffffff"
       d="m 2468,6609 -6,-7 -6,-7 -8,-7 -8,-7 -8,-8 -9,-7 -8,-7 -7,-6 -8,-6 -9,-7 -9,-6 -9,-7 -10,-6 -10,-6 -9,-5 -9,-4 -10,-5 -11,-4 -11,-3 -13,-4 -12,-3 -13,-3 -12,-2 -11,-2 -10,-1 -10,-1 -10,-2 h -11 l -11,-1 -12,-1 h -23 l -11,-1 -10,1 h -23 l -13,1 h -13 l -14,1 -13,1 -14,2 -13,1 -13,2 -12,2 -10,1 -11,2 -11,2 -11,2 -12,2 -13,3 -12,3 -13,3 -26,6 -12,3 -13,4 -11,2 -12,4 -13,3 -13,3 -28,8 -15,5 -15,4 -15,5 -14,4 -15,5 -14,5 -13,4 -13,5 -15,6 -16,6 -16,6 -16,6 -16,7 -17,8 -15,7 -15,7 -14,6 -12,6 -11,6 -10,6 -14,8 -12,8 -11,8 -11,9 -8,8 -7,7 -6,7 -5,6 -6,8 -5,9 -4,10 -3,10 -2,10 -1,10 v 16 l 1,10 2,10 2,10 2,11 2,9 3,10 6,18 4,10 5,10 5,10 6,10 5,9 7,8 6,7 8,8 9,8 10,8 10,7 11,7 11,6 11,6 9,4 10,5 10,4 12,4 12,4 12,4 12,4 12,3 12,3 12,3 12,2 13,2 13,2 15,2 15,1 16,2 15,1 15,1 14,1 15,1 h 11 l 13,1 h 13 l 13,1 h 28 l 14,1 h 27 l 12,1 h 12 l 11,1 h 26 l 14,1 h 13 l 14,1 h 14 l 12,1 h 12 l 12,1 h 32 l 11,1 h 101 l 9,-1 10,-1 10,-1 11,-2 22,-8 11,-5 11,-7 11,-7 11,-9 11,-10 11,-11 9,-12 10,-13 10,-14 10,-15 10,-17 11,-18 10,-19 10,-19 10,-19 10,-19 9,-18 8,-18 7,-16 6,-16 6,-14 5,-12 5,-16 4,-14 3,-13 2,-11 v -20 l -1,-8 -2,-7 -2,-6 -3,-5 -3,-4 z"
       id="path8" />
    <path
       d="m 4102,4658 -2,1 -8,6 -12,8 -12,8 -9,5 -8,4 -7,3 -8,3 -18,4 -9,1 -8,1 -7,1 h -8 l -8,1 h -9 l -9,1 h -16 l -8,1 h -29 l -10,-1 -9,-1 -8,-1 -9,-2 -10,-2 -22,-6 -10,-3 -10,-4 -8,-3 -9,-3 -9,-4 -10,-4 -10,-4 -9,-5 -9,-5 -9,-4 -9,-6 -9,-6 -9,-6 -10,-7 -10,-7 -9,-7 -8,-6 -8,-6 -7,-6 -8,-6 -8,-6 -8,-6 -8,-6 -8,-6 -8,-5 -8,-5 -8,-5 -9,-5 -9,-6 -10,-5 -11,-6 -10,-5 -10,-4 -9,-5 -10,-4 -10,-5 -11,-4 -12,-4 -12,-5 -12,-4 -12,-3 -11,-3 -10,-3 -10,-2 -11,-2 -11,-2 -12,-2 -12,-2 -12,-2 -11,-1 -11,-2 -10,-1 -10,-1 h -11 l -11,-1 -11,-1 h -44 l -10,1 h -9 l -12,2 -13,1 -12,2 -13,3 -12,3 -11,2 -10,3 -9,3 -8,3 -7,4 -8,4 -8,4 -7,5 -8,4 -8,5 -8,6 -7,4 -8,5 -10,6 -11,7 -14,8 -15,9 -14,9 -10,6 -4,3 h -1"
       id="path9" />
    <path
       d="m 2940,2986 -1,-1 -7,-4 -12,-8 -15,-10 -14,-9 -12,-7 -10,-6 -10,-4 -10,-4 -10,-3 -12,-3 -11,-3 -12,-2 -12,-2 -11,-1 -11,-1 h -10 l -12,-1 -12,1 h -12 l -12,1 -12,2 -11,2 -10,2 -10,3 -10,4 -11,4 -11,5 -10,5 -10,6 -9,5 -7,6 -8,6 -7,7 -7,7 -7,8 -6,8 -6,9 -4,8 -4,8 -4,9 -3,9 -3,11 -2,10 -2,11 -2,11 -1,10 -1,10 v 40 l 2,11 1,10 3,9 2,9 4,9 4,9 5,10 5,10 7,9 6,9 6,8 7,7 6,7 7,6 8,7 9,6 8,7 8,5 8,5 8,5 8,4 8,4 9,4 10,4 10,4 9,3 10,3 9,2 9,2 10,2 10,1 12,2 11,1 10,1 h 11 l 9,1 h 19 l 10,1 h 10 l 10,-1 h 19 l 9,-1 9,-1 h 9 l 9,-2 10,-1 18,-2 9,-2 7,-1 10,-2 9,-1 10,-2 9,-2 8,-1 h 8 l 7,-1 h 7 l 14,2 7,2 7,3 14,7 9,4 9,4 9,4 9,2 10,2 10,1 12,-1 h 11 l 10,-1 9,-2 8,-1 8,-2 7,-3 6,-3 5,-4 4,-5 3,-6 3,-8 2,-9 1,-10 v -20 l -1,-10 -1,-11 -3,-11 -3,-11 -3,-10 -4,-8 -4,-7 -6,-7 -8,-8 -9,-8 -6,-5 -1,-1"
       id="path10" />
    <path
       style="fill:#ffffff"
       d="m 3309,2031 9,-14 10,-13 10,-12 11,-13 11,-12 11,-12 11,-12 12,-11 11,-10 12,-9 11,-9 12,-9 12,-9 14,-8 14,-9 15,-8 16,-8 17,-8 16,-6 17,-5 16,-4 15,-2 h 15 l 14,1 11,2 12,4 12,4 12,6 11,8 12,8 11,10 11,11 10,11 10,11 8,12 8,12 7,12 6,12 5,13 5,13 5,13 4,15 4,15 3,16 3,17 4,34 2,18 1,17 v 17 l 1,17 v 48 l -1,17 v 17 l -1,19 -2,38 -2,20 -1,20 -2,20 -3,20 -4,38 -3,19 -6,36 -4,17 -3,18 -4,18 -5,19 -5,19 -5,20 -5,19 -6,20 -6,19 -7,19 -6,19 -7,17 -6,17 -7,16 -6,15 -7,15 -8,17 -8,16 -8,16 -10,16 -10,16 -10,16 -11,16 -11,15 -12,15 -11,13 -12,13 -12,11 -11,11 -12,10 -12,10 -13,9 -14,9 -14,8 -15,8 -16,8 -16,7 -17,6 -17,5 -16,4 -16,3 -15,2 -15,1 -15,1 -15,-1 -15,-1 -15,-3 -16,-3 -16,-5 -16,-6 -16,-6 -15,-8 -15,-8 -14,-9 -13,-9 -12,-10 -11,-11 -10,-10 -9,-12 -9,-12 -8,-13 -8,-15 -8,-15 -7,-16 -6,-16 -6,-17 -5,-16 -4,-17 -4,-15 -3,-16 -3,-14 -2,-14 -2,-14 -1,-14 -1,-15 -1,-14 v -31 l 1,-16 1,-16 2,-16 2,-16 3,-16 4,-15 3,-15 4,-16 4,-14 5,-14 5,-15 5,-16 7,-16 6,-18 7,-17 8,-18 7,-19 8,-18 8,-17 8,-18 8,-17 8,-16 8,-16 8,-15 8,-15 8,-16 8,-15 8,-16 9,-16 9,-16 10,-16 9,-16 9,-16 10,-15 9,-14 8,-14 9,-12 8,-12 7,-12 z"
       id="path11" />
    <path
       style="stroke-width:45"
       d="m 2498,3459 h 19 l 15,1 13,1 h 10 l 8,1 8,2 8,3 8,4 8,5 8,5 7,7 7,7 12,12 7,7 7,8 8,8 7,8 7,8 14,14 7,8 7,8 8,8 7,8 8,7 7,7 7,7 7,7 7,7 8,7 9,8 8,7 8,8 8,7 7,8 32,32 9,9 8,9 9,8 9,7 7,6 8,6 9,7 9,6 10,7 9,6 10,6 10,6 9,6 10,5 9,5 10,6 10,5 11,6 11,6 11,5 12,5 11,5 10,4 11,4 10,4 11,3 12,3 12,3 13,3 13,3 14,2 13,2 12,2 13,2 10,1 12,1 11,1 h 13 l 13,1 h 13 l 13,1 h 37 l 11,-1 h 11 l 13,-1 13,-1 13,-2 14,-1 14,-3 14,-2 13,-3 13,-3 12,-4 12,-3 12,-5 12,-4 13,-5 13,-6 14,-6 13,-6 13,-7 12,-5 12,-6 11,-5 11,-6 11,-5 11,-6 12,-5 12,-6 11,-6 12,-6 11,-6 11,-6 11,-6 11,-6 12,-7 12,-7 12,-7 12,-8 13,-8 11,-8 10,-7 10,-6 8,-7 9,-7 9,-8 8,-8 8,-7 7,-6 8,-6 7,-5 7,-4 7,-3 8,-2 10,-3 10,-1 9,-1 10,-1 8,-1 h 17 l 9,-1 h 29"
       id="path12" />
    <path
       style="fill:#ffffff"
       d="m 2870,2736 6,-9 6,-8 6,-9 7,-9 6,-11 6,-11 6,-12 6,-13 6,-14 6,-15 4,-13 5,-13 5,-14 5,-16 6,-17 6,-18 5,-19 12,-38 6,-18 6,-19 10,-34 5,-16 5,-16 5,-15 5,-16 10,-32 5,-16 5,-16 5,-15 5,-15 5,-14 5,-13 4,-12 8,-22 5,-13 5,-12 5,-12 4,-12 5,-12 5,-13 5,-12 5,-11 5,-11 4,-10 4,-10 4,-9 4,-12 5,-11 4,-12 5,-13 5,-12 4,-12 4,-11 4,-11 6,-18 3,-10 3,-10 3,-10 2,-20 -1,-10 -1,-10 -3,-10 -3,-8 -3,-7 -4,-8 -5,-9 -6,-8 -6,-8 -8,-8 -8,-7 -8,-6 -9,-5 -9,-3 -9,-2 -10,-2 h -11 l -11,2 -13,2 -13,3 -13,4 -13,5 -13,6 -12,5 -11,6 -11,5 -9,6 -11,7 -11,7 -10,7 -10,8 -10,9 -10,10 -10,10 -10,11 -10,11 -10,13 -8,9 -8,10 -9,12 -9,12 -10,13 -11,15 -11,14 -10,16 -11,15 -11,16 -10,15 -10,15 -9,15 -9,15 -9,15 -9,15 -9,16 -9,16 -9,16 -9,17 -8,17 -8,16 -8,16 -7,14 -7,14 -6,13 -6,12 -5,11 -6,12 -5,12 -5,11 -4,11 -5,12 -4,12 -4,11 -3,12 -3,13 -3,12 -3,13 -2,14 -2,12 -2,14 -2,14 -1,16 -2,17 -1,18 -1,17 -1,18 -1,18 v 17 l 1,16 v 15 l 1,14 2,14 3,17 4,16 5,15 6,14 6,14 7,12 7,11 7,9 7,8 7,7 8,7 8,7 9,7 9,5 10,5 9,4 10,3 9,2 10,2 h 24 l 13,-1 14,-3 13,-3 12,-6 11,-6 9,-6 10,-7 9,-9 10,-9 9,-10 9,-11 9,-10 8,-10 7,-10 z"
       id="path13" />
    <path
       d="m 3489,1649 h 1 l 4,-3 10,-6 16,-8 19,-10 20,-11 19,-10 18,-8 16,-7 14,-5 13,-4 13,-4 13,-2 13,-2 14,-1 h 29 l 15,1 30,4 14,3 13,4 12,4 12,4 12,5 11,6 12,6 11,7 12,9 11,9 11,10 10,10 10,11 8,11 8,12 7,12 6,11 6,12 5,14 5,15 6,17 6,20 6,22 6,23 6,22 6,21 4,15 2,9 1,4 v 1"
       id="path14" />
    <path
       d="m 3278,1680 v -1 l -1,-5 -3,-10 -4,-14 -5,-16 -5,-14 -4,-13 -10,-18 -5,-6 -7,-7 -7,-5 -8,-5 -10,-5 -10,-4 -11,-4 -11,-3 -12,-2 -11,-2 -11,-1 -11,-1 -12,-1 h -13 l -14,1 -14,1 -15,2 -14,3 -13,4 -13,4 -13,5 -20,12 -11,7 -11,8 -12,9 -12,10 -12,11 -13,11 -12,12 -12,11 -11,12 -12,12 -9,10 -10,9 -10,11 -10,11 -11,11 -11,12 -11,13 -12,13 -11,14 -12,13 -11,14 -11,14 -10,13 -10,13 -10,13 -9,14 -9,13 -9,14 -9,14 -9,15 -9,16 -9,16 -9,16 -9,17 -9,17 -8,16 -8,16 -7,16 -7,15 -6,15 -6,14 -6,13 -6,15 -6,16 -6,15 -5,16 -12,32 -5,16 -5,15 -5,16 -5,14 -4,14 -5,13 -4,12 -4,12 -5,13 -4,14 -6,14 -5,14 -5,14 -6,15 -6,14 -5,14 -6,14 -5,13 -5,13 -5,13 -4,13 -5,14 -6,15 -6,17 -7,19 -7,22 -8,23 -7,22 -6,17 -4,12 -2,5 v 1"
       id="path15" />
    <path
       style="fill:#ffd700"
       d="m 4036,5613 12,8 12,8 11,8 12,7 12,8 11,7 11,7 11,7 10,6 9,6 10,6 8,5 22,14 11,7 12,7 11,8 12,7 12,8 10,7 10,6 10,7 9,6 10,6 10,6 10,7 9,6 10,7 9,5 8,6 7,4 6,4 10,7 9,5 9,5 8,4 7,3 6,2 7,1 h 14 l 7,-1 6,-2 5,-2 6,-2 5,-4 5,-3 4,-3 8,-8 3,-5 4,-5 4,-5 3,-5 8,-10 5,-6 3,-5 3,-5 4,-6 3,-7 2,-7 2,-7 1,-6 v -13 l -1,-7 -1,-8 -1,-6 -1,-6 -2,-5 -3,-5 -3,-6 -4,-5 -9,-9 -5,-4 -5,-5 -7,-5 -7,-5 -7,-5 -7,-5 -7,-5 -8,-5 -9,-6 -20,-12 -9,-6 -8,-5 -9,-5 -9,-6 -11,-7 -10,-7 -10,-6 -10,-7 -9,-6 -10,-6 -9,-6 -10,-7 -11,-6 -9,-6 -9,-6 -8,-5 -8,-4 -6,-4 -7,-4 -7,-4 -7,-4 -14,-8 -7,-4 -7,-5 -8,-6 -9,-6 -9,-6 -10,-8 -9,-7 -9,-6 -7,-5 -6,-5 -5,-3 -4,-3 -3,-2 -4,-1 h -14 l -6,1 -7,1 -8,1 -9,2 -10,1 -12,2 -12,2 -13,2 -12,1 -12,2 -12,2 -12,2 -12,2 -12,1 -13,2 -12,3 -12,2 -10,2 -10,1 -8,2 -7,2 -3,1 h -2 l -6,3 h -2 l -1,1 -2,1 -2,2 v 2 l -1,1 v 4 l 4,8 2,2 4,4 2,3 3,2 6,6 7,6 10,7 10,9 12,9 13,10 15,10 14,11 15,10 14,10 14,10 13,9 z"
       id="path16" />
    <path
       style="fill:#d10000"
       d="m 2303,4762 6,8 7,7 7,7 7,8 7,7 7,6 6,6 6,5 8,7 8,7 9,7 9,6 9,5 9,4 7,2 8,3 9,2 9,2 10,2 10,1 10,2 9,1 h 9 l 11,1 10,1 h 44 l 9,-1 9,-1 10,-1 10,-1 10,-2 11,-2 20,-4 9,-2 9,-2 10,-3 11,-2 10,-3 11,-3 10,-3 9,-3 8,-3 8,-2 8,-4 8,-3 7,-4 8,-4 7,-4 7,-5 12,-10 7,-6 7,-7 8,-7 8,-8 8,-9 7,-8 8,-8 6,-7 14,-14 7,-8 8,-9 7,-8 8,-8 7,-8 6,-8 7,-7 7,-9 16,-18 8,-10 8,-9 6,-9 7,-8 5,-7 5,-8 5,-7 4,-8 5,-8 3,-8 3,-7 3,-7 1,-7 2,-7 v -8 l 1,-8 v -17 l -1,-9 v -8 l -2,-16 -1,-9 -2,-9 -2,-9 -2,-10 -3,-9 -3,-8 -4,-7 -5,-8 -5,-7 -6,-7 -7,-8 -7,-6 -8,-7 -7,-6 -6,-5 -7,-5 -7,-4 -8,-5 -8,-5 -8,-4 -7,-4 -8,-4 -7,-3 -7,-4 -16,-6 -9,-3 -9,-2 -8,-3 -8,-2 -16,-2 -8,-1 -9,-1 h -26 l -8,1 -8,1 -10,1 -10,2 -10,2 -11,4 -9,3 -8,4 -4,3 -5,3 -6,5 -7,6 -9,7 -10,9 -12,11 -14,13 -16,14 -18,17 -11,10 -12,11 -14,12 -14,13 -15,14 -16,15 -16,15 -17,16 -17,16 -17,16 -16,17 -16,15 -14,15 -14,15 -13,13 -11,13 -11,12 -9,11 -8,12 -8,10 -6,11 -5,9 -4,10 -3,8 -1,8 -1,8 v 7 l 1,6 2,6 2,5 3,4 3,5 3,4 z"
       id="path17" />
    <path
       style="fill:#ffffff"
       d="m 2288,6848 4,-11 6,-10 7,-12 8,-11 9,-11 10,-10 10,-10 9,-9 9,-7 9,-7 9,-7 8,-5 9,-6 8,-6 10,-5 9,-5 8,-5 9,-4 9,-4 8,-4 9,-5 9,-5 10,-5 11,-5 11,-5 12,-6 11,-5 11,-5 10,-5 10,-4 10,-4 10,-4 11,-4 11,-4 12,-4 12,-3 11,-4 11,-3 11,-3 11,-2 11,-3 11,-3 13,-2 13,-3 13,-2 13,-3 13,-2 13,-2 12,-2 12,-1 11,-2 12,-1 12,-2 13,-1 13,-1 13,-1 h 12 l 12,-1 h 22 l 11,-1 11,1 h 24 l 12,1 13,1 12,1 11,1 12,1 11,2 10,1 12,2 12,2 12,3 13,2 12,3 12,3 12,2 10,3 10,3 12,4 12,3 12,5 13,4 12,5 11,5 10,5 10,6 10,5 10,6 10,7 11,8 11,8 10,8 9,8 9,9 7,6 7,7 7,8 7,8 7,8 7,9 7,8 6,9 5,8 5,8 6,9 5,11 5,12 5,12 5,12 4,12 3,12 4,11 2,9 4,20 2,11 2,11 2,10 1,11 2,9 1,10 1,8 v 15 l -1,5 -1,6 -2,5 -2,5 -4,6 -10,10 -7,6 -8,5 -9,5 -11,4 -11,5 -13,5 -12,4 -13,4 -14,4 -32,8 -19,4 -20,4 -21,3 -22,4 -23,3 -25,3 -24,3 -52,4 -25,1 h -26 l -26,1 -78,-3 -24,-2 -50,-6 -26,-3 -26,-4 -27,-4 -27,-5 -56,-12 -28,-6 -28,-6 -27,-7 -26,-7 -25,-7 -25,-7 -23,-7 -22,-7 -20,-7 -19,-7 -18,-7 -16,-6 -15,-7 -17,-7 -15,-8 -14,-8 -13,-8 -11,-8 -10,-8 -9,-8 -7,-8 -6,-8 -5,-8 -3,-8 -3,-8 -1,-7 -1,-7 v -7 l 1,-6 2,-7 z"
       id="path18" />
    <path
       style="fill:#d10000"
       d="m 2232,4239 -8,3 -8,5 -9,4 -9,5 -8,5 -7,6 -7,5 -7,6 -7,8 -8,8 -7,9 -7,10 -5,7 -5,9 -5,9 -6,11 -5,10 -4,10 -4,10 -2,8 -3,9 -2,9 -1,9 -2,18 v 17 l -1,9 v 47 l 1,9 v 9 l 2,9 1,8 3,8 3,9 4,9 5,9 5,8 6,8 6,8 7,7 9,8 9,8 10,8 10,8 10,7 10,6 8,5 9,5 9,4 9,3 9,3 10,3 10,2 9,1 10,2 10,1 11,1 12,2 26,2 13,1 h 11 l 11,1 11,1 h 46 l 12,-2 10,-1 11,-2 18,-6 9,-3 10,-4 10,-5 11,-5 9,-5 10,-5 8,-6 9,-5 10,-7 20,-16 10,-9 9,-9 8,-9 6,-8 6,-8 5,-8 4,-7 4,-8 3,-9 3,-8 2,-7 1,-7 2,-7 1,-8 2,-10 1,-10 v -22 l -1,-11 -2,-9 -2,-10 -2,-11 -3,-11 -3,-12 -4,-11 -4,-10 -3,-9 -4,-9 -5,-8 -5,-9 -6,-8 -6,-8 -7,-7 -6,-7 -7,-6 -7,-5 -6,-5 -8,-5 -9,-5 -10,-5 -11,-5 -12,-5 -12,-5 -13,-4 -13,-5 -12,-3 -13,-4 -14,-3 -15,-3 -16,-4 -16,-3 -16,-3 -16,-2 -28,-4 -12,-1 -11,-1 -15,-1 h -13 l -12,1 -11,2 -10,2 -8,3 -7,3 z"
       id="path19" />
    <path
       style="fill:#d10000"
       d="m 2246,4048 1,-8 1,-10 3,-10 3,-11 5,-10 4,-10 5,-6 4,-7 6,-7 6,-6 7,-6 7,-6 6,-5 7,-5 6,-4 7,-5 7,-4 8,-4 7,-4 8,-4 8,-3 7,-2 8,-3 8,-2 9,-3 10,-2 9,-2 10,-1 8,-2 h 9 l 16,-2 h 9 l 9,-1 h 25 l 8,-1 h 20 l 11,-1 h 38 l 9,1 9,1 10,2 8,2 8,2 8,2 9,4 9,4 9,4 10,6 9,6 7,4 7,6 9,6 8,7 8,7 8,7 6,7 6,6 5,6 5,7 4,8 4,7 3,8 3,8 4,14 2,7 2,8 2,9 1,9 2,10 1,9 1,10 v 10 l 1,10 v 10 l -1,12 -1,12 -1,12 -2,12 -3,11 -3,9 -8,18 -6,9 -7,8 -8,8 -8,7 -8,7 -9,5 -7,4 -8,4 -9,4 -10,3 -10,4 -10,3 -11,3 -10,2 -11,2 -10,2 -10,1 -11,1 -12,1 -13,1 -13,1 -13,1 h -48 l -11,-1 h -11 l -12,-1 -11,-1 -12,-2 -12,-2 -11,-2 -10,-2 -10,-3 -9,-3 -10,-5 -11,-5 -11,-6 -10,-8 -10,-8 -9,-8 -8,-8 -8,-8 -7,-8 -7,-9 -6,-10 -7,-10 -6,-10 -5,-10 -4,-9 -3,-8 -4,-10 -3,-10 -2,-10 -1,-9 -1,-8 -1,-7 -1,-6 -2,-14 z"
       id="path20" />
    <path
       d="m 1481,6669 1,1 5,3 12,7 17,10 18,10 17,10 16,9 13,7 13,6 12,5 10,4 22,8 12,3 12,4 13,3 13,3 13,3 13,2 12,3 12,1 12,2 13,2 12,1 14,2 14,1 15,1 16,1 15,1 16,1 h 15 l 15,1 h 93 l 15,-1 h 30 l 15,-1 h 15 l 30,-2 h 15 l 14,-1 h 17 l 18,-1 38,-2 h 19 l 19,-1 18,-1 17,-1 h 15 l 13,-1 h 11 l 9,-1 h 16 l 1,-1 h 3 l -1,1 h -7"
       id="path21" />
    <path
       d="m 3533,6267 v 1 l 1,7 1,14 1,16 1,15 1,11 v 18 l -2,10 -1,9 -3,9 -3,8 -4,7 -3,6 -5,6 -5,6 -6,7 -6,6 -7,5 -7,5 -6,3 -6,4 -8,3 -8,4 -10,3 -9,3 -10,3 -10,3 -9,2 -10,2 -10,3 -13,3 -13,3 -14,4 -15,4 -16,5 -15,4 -17,6 -12,4 -14,5 -15,5 -17,7 -19,7 -22,8 -24,10 -25,10 -25,9 -23,9 -16,7 -11,4 -4,2 h -1"
       id="path22" />
    <path
       d="m 3983,6181 v 5 l 1,10 2,15 1,19 2,20 2,18 1,16 1,15 1,12 1,11 1,11 1,12 v 12 l 1,12 v 44 l -1,10 v 8 l -1,8 -2,9 -3,9 -3,8 -4,9 -5,7 -5,7 -6,6 -6,5 -7,4 -8,4 -10,4 -10,5 -12,4 -12,3 -11,4 -12,4 -11,2 -10,4 -12,3 -13,4 -13,3 -14,4 -14,4 -14,3 -13,3 -13,3 -11,2 -12,3 -12,2 -14,2 -14,3 -15,3 -15,4 -15,3 -16,4 -15,5 -16,4 -16,5 -12,5 -13,4 -14,5 -15,6 -17,7 -18,8 -21,9 -23,10 -23,10 -23,11 -22,9 -18,8 -13,6 -7,3 -4,2"
       id="path23" />
    <path
       style="fill:#ffffff"
       d="m 2263,6883 -3,7 -4,18 -2,8 v 9 l -1,8 v 9 l -1,9 v 21 l 1,10 v 9 l 1,9 v 9 l 2,9 1,9 2,9 3,8 2,5 3,6 4,7 6,7 7,7 8,8 9,7 11,8 8,5 10,5 10,6 12,7 12,6 14,7 14,7 14,6 14,7 13,5 13,6 13,5 13,4 13,4 13,5 14,4 15,4 15,3 16,4 32,6 16,3 17,2 16,2 15,2 15,1 17,2 17,2 18,1 20,2 19,1 20,2 38,2 19,2 34,2 16,1 h 16 l 16,1 16,1 16,1 17,1 17,1 h 17 l 18,1 17,1 17,1 h 17 l 17,1 16,1 17,1 h 14 l 16,1 h 15 l 17,1 18,1 h 18 l 18,1 h 19 l 18,1 h 19 l 18,1 h 97 l 17,-1 h 17 l 17,-1 17,-1 18,-1 18,-1 18,-2 18,-1 18,-2 17,-1 17,-2 17,-2 17,-2 30,-4 16,-2 17,-2 18,-2 18,-2 19,-3 19,-2 18,-3 18,-3 18,-2 17,-3 17,-2 15,-3 15,-2 14,-2 15,-3 15,-3 15,-3 15,-3 15,-3 15,-3 14,-3 14,-3 14,-4 14,-3 12,-4 13,-3 11,-4 12,-3 12,-4 12,-3 12,-5 13,-4 14,-5 28,-10 15,-5 14,-6 15,-5 14,-6 14,-5 13,-6 14,-5 13,-6 14,-5 15,-7 15,-6 15,-7 16,-6 16,-7 16,-7 16,-7 14,-6 15,-7 13,-6 13,-5 12,-5 13,-6 13,-6 13,-6 13,-6 13,-6 12,-5 11,-5 11,-5 9,-5 9,-4 8,-3 7,-3 12,-6 10,-6 10,-5 8,-5 6,-5 5,-5 4,-5 5,-7 4,-7 3,-7 3,-7 2,-7 1,-6 1,-7 v -7 l 1,-7 -1,-7 v -6 l -1,-6 v -7 l -2,-14 v -7 l -1,-6 v -7 l -1,-7 v -8 l -1,-9 v -8 l -1,-9 -1,-5 v -6 l -2,-6 -2,-5 -2,-6 -3,-5 -8,-6 -5,-2 h -13 l -8,2 -10,4 -11,4 -12,6 -14,6 -14,7 -14,8 -14,7 -14,8 -13,6 -13,7 -14,7 -15,7 -16,7 -16,8 -16,7 -15,8 -16,6 -14,7 -14,6 -12,5 -13,5 -13,5 -13,5 -13,5 -13,5 -14,5 -13,4 -14,4 -12,5 -13,4 -12,3 -12,4 -11,3 -11,3 -12,4 -12,3 -13,4 -14,4 -14,4 -15,3 -15,4 -15,4 -14,3 -15,4 -14,3 -15,4 -15,3 -16,3 -16,3 -17,4 -18,3 -19,4 -19,3 -19,4 -19,3 -19,3 -17,2 -17,3 -17,2 -15,3 -16,1 -32,4 -16,2 -16,2 -17,1 -17,2 -17,1 -16,1 -16,1 -16,1 -14,1 -15,1 -14,1 -14,1 -15,1 h -15 l -16,1 -17,1 -18,1 h -18 l -38,2 -19,1 h -19 l -19,1 h -19 l -19,1 h -16 l -16,1 h -17 l -18,1 h -19 l -19,1 h -20 l -20,1 h -63 l -20,1 h -112 l -19,-1 h -19 l -19,-1 h -20 l -20,-1 -19,-1 -20,-1 -19,-1 -19,-1 -18,-1 -17,-2 -17,-1 -15,-1 -14,-2 -14,-1 -12,-1 -17,-3 -16,-2 -15,-2 -15,-2 -15,-3 -15,-3 -14,-3 -13,-3 -12,-3 -11,-2 -10,-3 -10,-3 -11,-3 -12,-4 -12,-4 -11,-4 -12,-4 -11,-4 -20,-8 -8,-4 -7,-4 -9,-5 -9,-5 -8,-6 -8,-5 -8,-6 -7,-5 -6,-5 -5,-5 -8,-6 -8,-6 -8,-6 -8,-5 -7,-5 -5,-4 -4,-3 -4,-3 -4,-2 -3,-2 -4,-1 h -3 l -3,1 -3,2 -5,4 -5,6 -6,8 -5,9 z"
       id="path24" />
    <path
       style="fill:#ffffff;stroke-width:15"
       d="m 4281,6302 7,-6 9,-5 8,-4 9,-4 8,-2 8,-1 7,-1 h 7 l 8,1 7,2 7,2 7,3 7,3 7,4 7,6 14,12 6,7 6,7 6,8 6,9 5,10 4,10 3,10 1,7 1,8 1,9 v 10 l -1,10 -2,18 -1,9 -2,8 -2,9 -3,9 -3,9 -3,10 -8,16 -4,8 -5,6 -5,7 -7,7 -6,7 -8,6 -7,5 -7,3 -7,4 -9,2 -11,2 h -10 l -11,-1 -10,-2 -9,-2 -9,-3 -9,-4 -9,-5 -8,-4 -8,-5 -6,-5 -7,-5 -5,-5 -6,-5 -5,-6 -4,-6 -3,-5 -3,-7 -3,-6 -2,-8 -1,-8 -1,-8 v -8 l -1,-8 1,-9 v -9 l 1,-10 2,-9 1,-7 2,-8 1,-8 6,-16 4,-9 4,-7 4,-7 4,-6 5,-8 6,-7 6,-7 6,-7 6,-6 z"
       id="path25" />
    <g
       style="stroke:#00ffff"
       id="g33">
      <path
         d="m 3248,6546 h 6 l 11,1 15,1 16,2 16,2 14,1 12,2 11,2 10,3 10,2 11,4 12,4 14,6 16,6 16,7 15,7 11,4 5,3 h 1"
         id="path26" />
      <path
         d="m 3095,6246 h 14 l 14,1 18,1 h 18 l 18,1 16,2 14,1 13,1 12,2 12,2 12,3 13,3 14,3 16,5 18,5 20,6 21,7 20,6 16,6 11,3 4,2 h 1"
         id="path27" />
      <path
         d="m 3599,6276 h 1 l 5,1 11,1 17,1 21,2 22,2 21,2 20,2 17,2 15,2 14,2 14,2 14,2 14,3 16,2 17,4 20,3 21,5 23,4 22,5 18,3 11,3 5,1 h 1"
         id="path28" />
      <path
         d="m 3440,6504 h 45 l 15,1 h 13 l 12,1 10,1 10,1 10,2 10,2 12,3 13,3 16,5 16,5 15,4 10,3 5,2 h 1"
         id="path29" />
      <path
         d="m 3560,6402 h 1 l 5,1 12,1 19,1 23,2 24,2 22,2 20,2 18,2 16,2 14,2 13,2 13,2 14,2 13,3 32,6 19,5 19,4 18,4 15,4 9,2 4,1 h 1"
         id="path30" />
      <path
         d="m 2861,6429 h 2 l 3,1 6,1 9,1 6,1 7,1 8,1 10,2 11,2 12,3 12,2 12,3 12,3 12,4 10,3 11,3 12,4 13,5 15,5 16,6 18,7 17,6 14,6 8,3 4,2 h 1"
         id="path31" />
      <path
         d="m 2594,6492 h 6 l 11,1 h 17 l 21,1 22,1 21,2 20,1 17,1 16,2 14,1 15,2 12,2 13,2 14,3 15,3 17,3 19,4 20,5 22,5 21,5 18,4 14,3 9,2 3,1 h 1"
         id="path32" />
      <path
         d="m 3023,6360 h 1 l 4,1 9,1 15,3 18,3 19,3 18,3 16,3 15,3 13,3 12,2 12,3 12,3 26,8 15,4 18,6 19,6 20,6 19,7 16,5 10,3 4,2 h 1"
         id="path33" />
    </g>
  </g>
  <g
     style="fill-opacity:1;fill-rule:nonzero;stroke:#000000;stroke-width:7.5;stroke-linecap:butt;stroke-linejoin:miter;stroke-miterlimit:10;stroke-opacity:1"
     id="g37"
     transform="translate(121.26489,-2.1702155)">
    <path
       style="fill:#000000"
       d="M 126,31 C 94,159 12,248 -58,231 -127,214 -158,96 -126,-32 c 32,-127 114,-216 184,-199 69,17 100,135 68,262"
       transform="matrix(0.035,0,0,0.035,96.18,89.005)"
       id="path34" />
    <path
       style="fill:#000000"
       d="M 174,43 C 136,193 28,295 -68,271 -163,247 -211,106 -174,-43 c 38,-150 146,-252 241,-228 96,24 144,165 107,314"
       transform="matrix(0.035,0,0,0.035,115.185,93.205)"
       id="path35" />
    <path
       style="fill:#ffffff"
       d="M 54,10 C 30,147 -79,128 -54,-10 -30,-147 79,-128 54,10"
       transform="matrix(0.035,0,0,0.035,114.1,91.105)"
       id="path36" />
    <path
       style="fill:#ffffff"
       d="M 54,10 C 30,147 -79,128 -54,-10 -30,-147 79,-128 54,10"
       transform="matrix(0.035,0,0,0.035,95.83,87.325)"
       id="path37" />
  </g>
  <text
     xml:space="preserve"
     style="font-weight:bold;font-size:43.5241px;line-height:1.3;font-family:Arial;-inkscape-font-specification:'Arial Bold';text-align:center;letter-spacing:0px;text-anchor:middle;fill:#ffffff;stroke:#000000;stroke-width:0.75"
     x="78.181679"
     y="109.23157"
     id="text37"
     transform="matrix(0.67802645,-0.23656205,0.45873677,1.3148164,0,0)"><tspan
       sodipodi:role="line"
       id="tspan37"
       style="font-style:normal;font-variant:normal;font-weight:bold;font-stretch:normal;font-family:Helvetica, Arial, sans-serif;-inkscape-font-specification:'Helvetica Bold';fill:#674bff;fill-opacity:1;stroke-width:0.75"
       x="78.181679"
       y="109.23157">VMNET</tspan></text>
</svg>
